<?xml version="1.0" encoding="UTF-8"?>
<!DOCTYPE svg PUBLIC "-//W3C//DTD SVG 1.1//EN" "http://www.w3.org/Graphics/SVG/1.1/DTD/svg11.dtd">
<!-- Creator: CorelDRAW -->
<svg xmlns="http://www.w3.org/2000/svg" xml:space="preserve" width="3.05298in" height="2.51468in" style="shape-rendering:geometricPrecision; text-rendering:geometricPrecision; image-rendering:optimizeQuality; fill-rule:evenodd; clip-rule:evenodd" viewBox="0 0 4.30123 3.54284" xmlns:xlink="http://www.w3.org/1999/xlink">
 <defs>
  <style type="text/css">
   <![CDATA[
    .fil1 {fill:none}
    .fil0 {fill:black}
    .fil4 {fill:#003333}
    .fil3 {fill:url(#id8)}
    .fil6 {fill:url(#id9)}
    .fil10 {fill:url(#id10)}
    .fil9 {fill:url(#id11)}
    .fil2 {fill:url(#id12)}
    .fil5 {fill:url(#id13)}
    .fil7 {fill:url(#id14)}
    .fil8 {fill:url(#id15)}
   ]]>
  </style>
   <mask id="id0">
  <linearGradient id="id1" gradientUnits="userSpaceOnUse" x1="1.9795" y1="2.06404" x2="4.1096" y2="2.78883">
   <stop offset="0" style="stop-opacity:1; stop-color:white"/>
   <stop offset="1" style="stop-opacity:0; stop-color:white"/>
  </linearGradient>
    <rect style="fill:url(#id1)" x="1.78298" y="1.74922" width="2.52314" height="1.35444"/>
   </mask>
   <mask id="id2">
  <linearGradient id="id3" gradientUnits="userSpaceOnUse" x1="1.41223" y1="2.55515" x2="0.914761" y2="3.22929">
   <stop offset="0" style="stop-opacity:1; stop-color:white"/>
   <stop offset="1" style="stop-opacity:0; stop-color:white"/>
  </linearGradient>
    <rect style="fill:url(#id3)" x="0.534214" y="2.04652" width="1.25857" height="1.6914"/>
   </mask>
   <mask id="id4">
  <linearGradient id="id5" gradientUnits="userSpaceOnUse" x1="2.10435" y1="2.34174" x2="2.9621" y2="3.78094">
   <stop offset="0" style="stop-opacity:1; stop-color:white"/>
   <stop offset="1" style="stop-opacity:0; stop-color:white"/>
  </linearGradient>
    <rect style="fill:url(#id5)" x="0.899713" y="1.70516" width="3.26702" height="2.71236"/>
   </mask>
   <mask id="id6">
  <linearGradient id="id7" gradientUnits="userSpaceOnUse" x1="3.06973" y1="1.71527" x2="1.9676" y2="2.09677">
   <stop offset="0" style="stop-opacity:1; stop-color:white"/>
   <stop offset="1" style="stop-opacity:0; stop-color:white"/>
  </linearGradient>
    <rect style="fill:url(#id7)" x="1.78299" y="1.5363" width="1.47136" height="0.73943"/>
   </mask>
  <linearGradient id="id8" gradientUnits="userSpaceOnUse" x1="0.904605" y1="4.41263" x2="4.16184" y2="1.71005">
   <stop offset="0" style="stop-color:#7ED800"/>
   <stop offset="1" style="stop-color:#006633"/>
  </linearGradient>
  <linearGradient id="id9" gradientUnits="userSpaceOnUse" x1="1.78788" y1="2.91299" x2="0.539106" y2="0.790515">
   <stop offset="0" style="stop-color:#66CC00"/>
   <stop offset="1" style="stop-color:#CCFF00"/>
  </linearGradient>
  <linearGradient id="id10" gradientUnits="userSpaceOnUse" x1="3.94001" y1="3.17393" x2="-0.302755" y2="0.100429">
   <stop offset="0" style="stop-color:#006633"/>
   <stop offset="1" style="stop-color:#99CC33"/>
  </linearGradient>
  <linearGradient id="id11" gradientUnits="userSpaceOnUse" xlink:href="#id10" x1="1.99049" y1="0.814594" x2="0.0101948" y2="-0.0240782">
  </linearGradient>
  <linearGradient id="id12" gradientUnits="userSpaceOnUse" xlink:href="#id9" x1="1.78908" y1="2.91304" x2="0.537913" y2="2.8714">
  </linearGradient>
  <linearGradient id="id13" gradientUnits="userSpaceOnUse" xlink:href="#id8" x1="1.72858" y1="1.77028" x2="3.30875" y2="2.04175">
  </linearGradient>
  <linearGradient id="id14" gradientUnits="userSpaceOnUse" x1="1.09506" y1="0.40538" x2="1.44474" y2="1.18252">
   <stop offset="0" style="stop-color:#006633"/>
   <stop offset="1" style="stop-color:#003333"/>
  </linearGradient>
  <linearGradient id="id15" gradientUnits="userSpaceOnUse" xlink:href="#id10" x1="2.26582" y1="0.913696" x2="2.95975" y2="0.594018">
  </linearGradient>
 </defs>
 <g id="Capa_x0020_1">
  <metadata id="CorelCorpID_0Corel-Layer"/>
  <polygon class="fil0" style="mask:url(#id0)" points="1.78787,2.91299 3.60327,3.09876 4.30123,2.12159 3.65235,1.75411 2.61087,1.82093 "/>
  <line class="fil1" x1="0.539106" y1="2.07481" x2="1.78787" y2="2.91299"/>
  <line class="fil1" x1="1.78787" y1="2.91299" x2="1.78787" y2="1.62869"/>
  <polygon class="fil2" style="mask:url(#id2)" points="1.78787,2.91299 1.78787,3.54284 0.539106,2.68126 0.539106,2.05141 "/>
  <polygon class="fil3" style="mask:url(#id4)" points="3.24946,2.81111 2.15215,3.36046 1.78787,3.54284 1.78787,2.91299 3.24946,2.18127 "/>
  <polygon class="fil4" points="2.0013,1.34066 2.85643,1.91463 2.88984,2.18366 1.78787,2.91299 0.66075,2.06198 0.916176,1.88238 "/>
  <polyline class="fil1" points="0.539106,2.07481 0.539106,0.790515 1.78787,1.62869 "/>
  <line class="fil1" x1="0.539106" y1="2.07481" x2="1.78787" y2="2.91299"/>
  <line class="fil1" x1="1.78787" y1="2.91299" x2="1.78787" y2="1.62869"/>
  <polyline class="fil1" points="1.78787,2.91299 3.24946,2.18334 3.24946,0.899042 "/>
  <line class="fil1" x1="2.00069" y1="1.34517" x2="2.00069" y2="0.0608695"/>
  <polygon class="fil5" points="3.24946,0.899042 2.15216,1.44683 1.78787,1.62869 1.78787,2.91299 3.24946,2.18334 "/>
  <polygon class="fil6" points="1.78787,2.91299 1.78787,1.62869 1.6364,1.52702 0.539106,0.790515 0.539106,2.07481 "/>
  <polygon class="fil7" points="0.539106,0.790515 1.6364,1.52702 2.00069,1.34517 2.00069,0.0608695 "/>
  <polygon class="fil8" points="2.00067,0.0608806 1.97612,1.35744 2.15216,1.44683 3.24946,0.899042 "/>
  <polygon class="fil9" points="1.46158,0 -0,0.72964 0.539106,0.790515 2.00069,0.0608695 "/>
  <polygon class="fil0" style="mask:url(#id6)" points="1.78788,1.62869 1.78788,2.27084 3.24946,1.54119 "/>
  <polygon class="fil10" points="2.22124,2.24685 3.64023,1.47975 3.24946,0.899042 1.79015,1.63284 "/>
 </g>
</svg>