<?xml version="1.0" encoding="UTF-8" standalone="no"?>
<!-- Created with Inkscape (http://www.inkscape.org/) -->

<svg
   xmlns:dc="http://purl.org/dc/elements/1.1/"
   xmlns:cc="http://creativecommons.org/ns#"
   xmlns:rdf="http://www.w3.org/1999/02/22-rdf-syntax-ns#"
   xmlns:svg="http://www.w3.org/2000/svg"
   xmlns="http://www.w3.org/2000/svg"
   xmlns:sodipodi="http://sodipodi.sourceforge.net/DTD/sodipodi-0.dtd"
   xmlns:inkscape="http://www.inkscape.org/namespaces/inkscape"
   width="55"
   height="55"
   id="svg2"
   version="1.1"
   inkscape:version="0.47 r22583"
   inkscape:export-filename="/home/valentin/icaro/repositorio/tortucaro.activity/images/butiaoff2.jpg.png"
   inkscape:export-xdpi="90"
   inkscape:export-ydpi="90"
   sodipodi:docname="icaroon.svg">
  <defs
     id="defs4">
    <inkscape:perspective
       sodipodi:type="inkscape:persp3d"
       inkscape:vp_x="0 : 27.5 : 1"
       inkscape:vp_y="0 : 1000 : 0"
       inkscape:vp_z="55 : 27.5 : 1"
       inkscape:persp3d-origin="27.5 : 18.333333 : 1"
       id="perspective11" />
  </defs>
  <sodipodi:namedview
     id="base"
     pagecolor="#ffffff"
     bordercolor="#666666"
     borderopacity="1.0"
     inkscape:pageopacity="0.0"
     inkscape:pageshadow="2"
     inkscape:zoom="3.959798"
     inkscape:cx="9.9918916"
     inkscape:cy="30.332803"
     inkscape:document-units="px"
     inkscape:current-layer="layer1"
     showgrid="false"
     fit-margin-top="0"
     fit-margin-left="0"
     fit-margin-right="0"
     fit-margin-bottom="0"
     inkscape:window-width="1360"
     inkscape:window-height="698"
     inkscape:window-x="-1"
     inkscape:window-y="25"
     inkscape:window-maximized="1" />
  <metadata
     id="metadata7">
    <rdf:RDF>
      <cc:Work
         rdf:about="">
        <dc:format>image/svg+xml</dc:format>
        <dc:type
           rdf:resource="http://purl.org/dc/dcmitype/StillImage" />
        <dc:title />
      </cc:Work>
    </rdf:RDF>
  </metadata>
  <g
     inkscape:label="Capa 1"
     inkscape:groupmode="layer"
     id="layer1"
     transform="translate(-191.42857,-420.21933)">
    <rect
       style="fill:#ffd000;fill-opacity:1;stroke:none"
       id="rect3753-6"
       width="55"
       height="55"
       x="191.42857"
       y="420.21933" />
    <path
       inkscape:connector-curvature="0"
       d="m 241.16924,434.65554 -9.06963,2.24115 c -3.67162,-1.72638 -8.23139,-2.7489 -13.1711,-2.7489 -4.94015,0 -9.49948,1.02252 -13.1711,2.7489 l -9.06919,-2.24115 c 0,0 -0.53709,-0.17596 -0.91485,0.23025 -0.37863,0.40664 -0.19566,0.95336 -0.19566,0.95336 l 2.32169,8.05893 c -0.62901,1.28472 -0.96869,2.6491 -0.96869,4.06295 0,7.30561 10.6949,11.13963 17.17059,12.7916 2.8115,0.71699 6.74575,0.71392 9.4487,0.0131 6.45205,-1.66992 17.37631,-5.56785 17.37631,-12.80473 0,-1.41385 -0.33968,-2.7778 -0.96825,-4.06251 l 2.32169,-8.05981 c 0,0 0.18209,-0.54672 -0.19566,-0.95336 -0.37776,-0.40665 -0.91485,-0.2298 -0.91485,-0.2298 z m -29.02282,19.79825 c -5.95785,0 -10.85423,-4.53963 -11.42152,-10.34823 1.56267,-0.79666 3.3302,-1.24883 5.20454,-1.24883 1.20286,0 2.36108,0.18779 3.45013,0.53096 -0.52001,1.49614 -0.81154,3.14855 -0.81154,4.88937 0,1.8971 0.34318,3.69221 0.95468,5.29077 0.61106,-1.59856 0.95423,-3.39367 0.95423,-5.29077 0,-1.69967 -0.27751,-3.31619 -0.77433,-4.78432 4.14393,1.4423 7.20712,5.19272 7.64879,9.71222 -1.56312,0.79666 -3.33064,1.24883 -5.20498,1.24883 z m 13.56462,0 c -1.87433,0 -3.6423,-0.45217 -5.20497,-1.24927 0.44079,-4.51381 3.49654,-8.25941 7.63215,-9.70608 -0.42328,1.37139 -0.65922,2.86227 -0.65922,4.4245 0,1.8971 0.34318,3.6922 0.95425,5.29077 0.61105,-1.59857 0.95467,-3.39367 0.95467,-5.29077 0,-1.62832 -0.25432,-3.18005 -0.71218,-4.59828 1.03128,-0.30422 2.12296,-0.46837 3.25273,-0.46837 1.87433,0 3.64185,0.45217 5.20453,1.24883 -0.56817,5.80904 -5.46454,10.34867 -11.42196,10.34867 z"
       id="path240"
       style="fill:#072b61;fill-opacity:1"
       sodipodi:nodetypes="ccsccsccsscsccscccscscsccccccscscscc" />
  </g>
</svg>
