<?xml version="1.0" encoding="UTF-8" standalone="no"?>
<!-- Created with Inkscape (http://www.inkscape.org/) -->

<svg
   xmlns:osb="http://www.openswatchbook.org/uri/2009/osb"
   xmlns:dc="http://purl.org/dc/elements/1.1/"
   xmlns:cc="http://creativecommons.org/ns#"
   xmlns:rdf="http://www.w3.org/1999/02/22-rdf-syntax-ns#"
   xmlns:svg="http://www.w3.org/2000/svg"
   xmlns="http://www.w3.org/2000/svg"
   xmlns:sodipodi="http://sodipodi.sourceforge.net/DTD/sodipodi-0.dtd"
   xmlns:inkscape="http://www.inkscape.org/namespaces/inkscape"
   width="210mm"
   height="297mm"
   id="svg2"
   version="1.1"
   inkscape:version="0.48.1 r9760"
   sodipodi:docname="compoentes.svg">
  <defs
     id="defs4">
    <marker
       inkscape:stockid="Arrow2Mend"
       orient="auto"
       refY="0.0"
       refX="0.0"
       id="Arrow2Mend"
       style="overflow:visible;">
      <path
         id="path4418"
         style="font-size:12.0;fill-rule:evenodd;stroke-width:0.62500000;stroke-linejoin:round;"
         d="M 8.7185878,4.0337352 L -2.2072895,0.016013256 L 8.7185884,-4.0017078 C 6.9730900,-1.6296469 6.9831476,1.6157441 8.7185878,4.0337352 z "
         transform="scale(0.6) rotate(180) translate(0,0)" />
    </marker>
    <marker
       inkscape:stockid="Arrow1Send"
       orient="auto"
       refY="0.0"
       refX="0.0"
       id="Arrow1Send"
       style="overflow:visible;">
      <path
         id="path4406"
         d="M 0.0,0.0 L 5.0,-5.0 L -12.5,0.0 L 5.0,5.0 L 0.0,0.0 z "
         style="fill-rule:evenodd;stroke:#000000;stroke-width:1.0pt;marker-start:none;"
         transform="scale(0.2) rotate(180) translate(6,0)" />
    </marker>
    <marker
       inkscape:stockid="DotS"
       orient="auto"
       refY="0.0"
       refX="0.0"
       id="DotS"
       style="overflow:visible">
      <path
         id="path4079"
         d="M -2.5,-1.0 C -2.5,1.7600000 -4.7400000,4.0 -7.5,4.0 C -10.260000,4.0 -12.5,1.7600000 -12.5,-1.0 C -12.5,-3.7600000 -10.260000,-6.0 -7.5,-6.0 C -4.7400000,-6.0 -2.5,-3.7600000 -2.5,-1.0 z "
         style="fill-rule:evenodd;stroke:#000000;stroke-width:1.0pt;marker-start:none;marker-end:none"
         transform="scale(0.2) translate(7.4, 1)" />
    </marker>
    <marker
       inkscape:stockid="Arrow2Mstart"
       orient="auto"
       refY="0.0"
       refX="0.0"
       id="Arrow2Mstart"
       style="overflow:visible">
      <path
         id="path4035"
         style="font-size:12.0;fill-rule:evenodd;stroke-width:0.62500000;stroke-linejoin:round"
         d="M 8.7185878,4.0337352 L -2.2072895,0.016013256 L 8.7185884,-4.0017078 C 6.9730900,-1.6296469 6.9831476,1.6157441 8.7185878,4.0337352 z "
         transform="scale(0.6) translate(0,0)" />
    </marker>
    <marker
       inkscape:stockid="Arrow2Lstart"
       orient="auto"
       refY="0.0"
       refX="0.0"
       id="Arrow2Lstart"
       style="overflow:visible">
      <path
         id="path4029"
         style="font-size:12.0;fill-rule:evenodd;stroke-width:0.62500000;stroke-linejoin:round"
         d="M 8.7185878,4.0337352 L -2.2072895,0.016013256 L 8.7185884,-4.0017078 C 6.9730900,-1.6296469 6.9831476,1.6157441 8.7185878,4.0337352 z "
         transform="scale(1.1) translate(1,0)" />
    </marker>
    <marker
       inkscape:stockid="Arrow1Sstart"
       orient="auto"
       refY="0.0"
       refX="0.0"
       id="Arrow1Sstart"
       style="overflow:visible">
      <path
         id="path4023"
         d="M 0.0,0.0 L 5.0,-5.0 L -12.5,0.0 L 5.0,5.0 L 0.0,0.0 z "
         style="fill-rule:evenodd;stroke:#000000;stroke-width:1.0pt;marker-start:none"
         transform="scale(0.2) translate(6,0)" />
    </marker>
    <marker
       inkscape:stockid="Arrow1Mstart"
       orient="auto"
       refY="0.0"
       refX="0.0"
       id="Arrow1Mstart"
       style="overflow:visible">
      <path
         id="path4017"
         d="M 0.0,0.0 L 5.0,-5.0 L -12.5,0.0 L 5.0,5.0 L 0.0,0.0 z "
         style="fill-rule:evenodd;stroke:#000000;stroke-width:1.0pt;marker-start:none"
         transform="scale(0.4) translate(10,0)" />
    </marker>
    <linearGradient
       id="linearGradient3774"
       osb:paint="gradient">
      <stop
         style="stop-color:#004455;stop-opacity:1;"
         offset="0"
         id="stop3776" />
      <stop
         style="stop-color:#004455;stop-opacity:0;"
         offset="1"
         id="stop3778" />
    </linearGradient>
  </defs>
  <sodipodi:namedview
     id="base"
     pagecolor="#ffffff"
     bordercolor="#666666"
     borderopacity="1.0"
     inkscape:pageopacity="0.0"
     inkscape:pageshadow="2"
     inkscape:zoom="2.8"
     inkscape:cx="-785.73169"
     inkscape:cy="263.14072"
     inkscape:document-units="px"
     inkscape:current-layer="layer1"
     showgrid="false"
     inkscape:window-width="1268"
     inkscape:window-height="735"
     inkscape:window-x="0"
     inkscape:window-y="27"
     inkscape:window-maximized="1"
     showguides="true"
     inkscape:guide-bbox="true" />
  <metadata
     id="metadata7">
    <rdf:RDF>
      <cc:Work
         rdf:about="">
        <dc:format>image/svg+xml</dc:format>
        <dc:type
           rdf:resource="http://purl.org/dc/dcmitype/StillImage" />
        <dc:title></dc:title>
      </cc:Work>
    </rdf:RDF>
  </metadata>
  <g
     inkscape:label="Capa 1"
     inkscape:groupmode="layer"
     id="layer1">
    <path
       inkscape:connector-curvature="0"
       inkscape:export-ydpi="90"
       inkscape:export-xdpi="90"
       inkscape:export-filename="/home/valentin/icaro/repositorio/icaro-pygtk/imagenes/componentes/componente_un_arg.png"
       id="path3200"
       d="m -582.50708,645.89244 0,9.995 0,39.97994 9.99571,0 0,9.995 39.98286,0 0,-9.995 9.99572,0 9.99571,0 0,-9.995 -9.99571,0 0,-19.98995 9.99571,0 0,-9.99499 -9.99571,0 0,-9.995 -9.99572,0 0,9.995 -39.98286,0 0,-9.995 -9.99571,0 z"
       style="fill:#800080;fill-opacity:1;stroke:#ffffff;stroke-width:2.03001046;stroke-miterlimit:4;stroke-opacity:1;stroke-dasharray:none" />
    <path
       style="fill:#00797f;fill-opacity:1;stroke:#ffffff;stroke-width:2.07065868;stroke-linecap:round;stroke-linejoin:round;stroke-miterlimit:4;stroke-opacity:1;stroke-dasharray:none"
       d="m -210.61472,543.35292 0,39.94348 9.89458,0 0,9.98586 39.9529,0 0,-9.98586 10.08186,0 0,-39.94348 -59.92934,0 z"
       id="rect2985"
       inkscape:connector-curvature="0"
       inkscape:export-filename="/home/valentin/icaro/repositorio/icaro-pygtk/imagenes/componentes/inicial.png"
       inkscape:export-xdpi="90"
       inkscape:export-ydpi="90" />
    <rect
       style="fill:#007c7f;fill-opacity:1;stroke:none"
       id="rect3865"
       width="10"
       height="10"
       x="256.96234"
       y="528.03693" />
    <rect
       y="538.03693"
       x="256.96234"
       height="40"
       width="60"
       id="rect3867"
       style="fill:#007c7f;fill-opacity:1;stroke:none" />
    <rect
       y="528.03693"
       x="306.96234"
       height="10"
       width="10"
       id="rect3869"
       style="fill:#007c7f;fill-opacity:1;stroke:none" />
    <rect
       style="fill:#007c7f;fill-opacity:1;stroke:none"
       id="rect3871"
       width="40"
       height="10"
       x="266.96234"
       y="578.03693" />
    <path
       style="fill:#01287f;fill-opacity:1;stroke:#ffffff;stroke-width:2.03001046;stroke-miterlimit:4;stroke-opacity:1;stroke-dasharray:none"
       d="m -207.50709,601.60672 0,9.995 0,39.97994 9.99571,0 0,9.995 39.98286,0 0,-9.995 9.99572,0 9.99571,0 0,-9.995 -9.99571,0 0,-19.98995 9.99571,0 0,-9.99499 -9.99571,0 0,-9.995 -9.99572,0 0,9.995 -39.98286,0 0,-9.995 -9.99571,0 z"
       id="rect3874"
       inkscape:export-filename="/home/valentin/icaro/repositorio/icaro-pygtk/imagenes/componentes/componente_un_arg.png"
       inkscape:export-xdpi="90"
       inkscape:export-ydpi="90"
       inkscape:connector-curvature="0" />
    <path
       style="fill:#00552d;fill-opacity:1;stroke:#ffffff;stroke-width:2;stroke-miterlimit:4;stroke-opacity:1;stroke-dasharray:none"
       d="m -207.70301,757.33566 0,10 0,40 70,0 0,10 40.000004,0 0,-10 10,0 10,0 0,-10 -10,0 0,-20 10,0 0,-10 -10,0 -60.000004,0 0,-10 -10,0 0,10 -40,0 0,-10 -10,0 z"
       id="rect3902"
       inkscape:connector-curvature="0"
       inkscape:export-filename="/home/valentin/icaro/repositorio/icaro-pygtk/imagenes/componentes/componente_bloque_uno.png"
       inkscape:export-xdpi="90"
       inkscape:export-ydpi="90" />
    <rect
       style="fill:#007c7f;fill-opacity:1;stroke:none"
       id="rect3931"
       width="10"
       height="10"
       x="100.18715"
       y="521.98798" />
    <rect
       y="531.98798"
       x="100.18715"
       height="40"
       width="120"
       id="rect3933"
       style="fill:#007c7f;fill-opacity:1;stroke:none" />
    <rect
       y="521.98798"
       x="150.18715"
       height="10"
       width="10"
       id="rect3935"
       style="fill:#007c7f;fill-opacity:1;stroke:none" />
    <rect
       style="fill:#007c7f;fill-opacity:1;stroke:none"
       id="rect3937"
       width="40"
       height="10"
       x="170.18672"
       y="571.98828" />
    <rect
       y="531.98798"
       x="220.18715"
       height="10"
       width="10"
       id="rect3939"
       style="fill:#007c7f;fill-opacity:1;stroke:none" />
    <rect
       style="fill:#007c7f;fill-opacity:1;stroke:none"
       id="rect3941"
       width="10"
       height="10"
       x="220.18715"
       y="561.98798" />
    <path
       style="fill:#00552d;fill-opacity:1;stroke:#ffffff;stroke-width:2;stroke-miterlimit:4;stroke-opacity:1;stroke-dasharray:none"
       d="m -156.11322,878.30406 0,10 -60,0 0,40 10,0 0,10 40,0 0,-10 70.000004,0 0,-40 0,-10 -10.000004,0 0,10 -40,0 0,-10 -10,0 z"
       id="rect3946"
       inkscape:connector-curvature="0"
       inkscape:export-filename="/home/valentin/icaro/repositorio/icaro-pygtk/imagenes/componentes/componente_bloque_dos.png"
       inkscape:export-xdpi="90"
       inkscape:export-ydpi="90" />
    <path
       style="fill:#08d039;fill-opacity:1;stroke:#ffffff;stroke-width:2;stroke-linecap:round;stroke-linejoin:round;stroke-miterlimit:4;stroke-opacity:1;stroke-dasharray:none"
       d="m -180.16714,689.05646 0,10 -10,0 0,20 10,0 0,10 50,0 0,-10 0,-20 0,-10 -50,0 z"
       id="rect3963"
       inkscape:connector-curvature="0"
       inkscape:export-filename="/home/valentin/icaro/repositorio/icaro-pygtk/imagenes/componentes/componente_dato.png"
       inkscape:export-xdpi="90"
       inkscape:export-ydpi="90" />
    <path
       style="fill:#5aa02c;fill-opacity:1;stroke:#ffffff;stroke-width:2;stroke-miterlimit:4;stroke-opacity:1;stroke-dasharray:none"
       d="m -205.17998,982.61901 0,10 0,89.99999 10,0 0,10 40,0 0,-10 10,0 0,-10 10,0 0,-10 -10,0 0,-20 10,0 0,-10 0,-10 -10,0 0,-18.9062 10,0 0,-10.00004 -10,0 0,-1.09375 0,-10 -10,0 0,10 -40,0 0,-10 -10,0 z"
       id="rect3987"
       inkscape:export-filename="/home/valentin/icaro/repositorio/icaro-pygtk/imagenes/componentes/componente_dos_arg.png"
       inkscape:export-xdpi="90"
       inkscape:export-ydpi="90"
       inkscape:connector-curvature="0" />
    <path
       transform="matrix(-0.68745601,0,0,-0.68745601,-55.79658,1338.1399)"
       sodipodi:open="true"
       sodipodi:end="4.712389"
       sodipodi:start="1.5951817"
       d="m -21.863982,839.14261 a 17.857143,17.857143 0 0 1 0.435411,-35.70898"
       sodipodi:ry="17.857143"
       sodipodi:rx="17.857143"
       sodipodi:cy="821.29077"
       sodipodi:cx="-21.428572"
       id="path5221"
       style="fill:none;stroke:#000000;stroke-width:2.00012803;stroke-linecap:round;stroke-linejoin:round;stroke-miterlimit:4;stroke-opacity:1;stroke-dasharray:none;marker-start:url(#DotS)"
       sodipodi:type="arc" />
    <g
       id="g5254"
       transform="matrix(0.82784693,0,0,0.82784693,-69.845135,-40.226285)"
       inkscape:export-filename="/home/valentin/icaro/repositorio/icaro-pygtk/imagenes/componentes/componente_bloque_uno.png"
       inkscape:export-xdpi="90"
       inkscape:export-ydpi="90">
      <path
         transform="matrix(0.68745601,0,0,0.68745601,-40.091091,247.22442)"
         sodipodi:open="true"
         sodipodi:end="4.712389"
         sodipodi:start="1.5951817"
         d="m -21.863982,839.14261 c -9.859296,-0.24047 -17.656894,-8.42795 -17.416424,-18.28725 0.236334,-9.68972 8.159235,-17.42173 17.851835,-17.42173"
         sodipodi:ry="17.857143"
         sodipodi:rx="17.857143"
         sodipodi:cy="821.29077"
         sodipodi:cx="-21.428572"
         id="path4004"
         style="fill:none;stroke:#000000;stroke-width:4.36391544;stroke-linecap:round;stroke-linejoin:round;stroke-miterlimit:4;stroke-opacity:1;stroke-dasharray:none;marker-start:url(#DotS)"
         sodipodi:type="arc" />
      <path
         sodipodi:type="arc"
         style="fill:none;stroke:#000000;stroke-width:4.36391544;stroke-linecap:round;stroke-linejoin:round;stroke-miterlimit:4;stroke-opacity:1;stroke-dasharray:none;marker-start:url(#DotS)"
         id="path5246"
         sodipodi:cx="-21.428572"
         sodipodi:cy="821.29077"
         sodipodi:rx="17.857143"
         sodipodi:ry="17.857143"
         d="m -21.863982,839.14261 c -9.859296,-0.24047 -17.656894,-8.42795 -17.416424,-18.28725 0.236334,-9.68972 8.159235,-17.42173 17.851835,-17.42173"
         sodipodi:start="1.5951817"
         sodipodi:end="4.712389"
         sodipodi:open="true"
         transform="matrix(-0.68745601,0,0,-0.68745601,-64.193892,1376.2998)" />
    </g>
    <g
       id="g5332"
       transform="matrix(0.77019007,0,0,0.77019007,84.426403,249.96726)"
       inkscape:export-filename="/home/valentin/icaro/repositorio/icaro-pygtk/imagenes/componentes/componente_dos_arg.png"
       inkscape:export-xdpi="90"
       inkscape:export-ydpi="90">
      <g
         id="g5316">
        <path
           style="fill:none;stroke:#000000;stroke-width:2;stroke-linecap:round;stroke-linejoin:miter;stroke-miterlimit:4;stroke-opacity:1;stroke-dasharray:none"
           d="m -287.46439,1111.4561 13.38453,0"
           id="path5266"
           inkscape:connector-curvature="0" />
        <path
           inkscape:connector-curvature="0"
           id="path5279"
           d="m -274.07986,1098.0715 0,13.3846"
           style="fill:none;stroke:#000000;stroke-width:2;stroke-linecap:round;stroke-linejoin:miter;stroke-miterlimit:4;stroke-opacity:1;stroke-dasharray:none" />
        <path
           inkscape:connector-curvature="0"
           id="path5281"
           d="m -274.07986,1098.0715 13.38453,0"
           style="fill:none;stroke:#000000;stroke-width:2;stroke-linecap:round;stroke-linejoin:miter;stroke-miterlimit:4;stroke-opacity:1;stroke-dasharray:none" />
        <path
           style="fill:none;stroke:#000000;stroke-width:2;stroke-linecap:round;stroke-linejoin:miter;stroke-miterlimit:4;stroke-opacity:1;stroke-dasharray:none"
           d="m -260.69533,1098.0715 0,13.3846"
           id="path5298"
           inkscape:connector-curvature="0" />
      </g>
      <g
         transform="translate(26.76906,0)"
         id="g5322">
        <path
           inkscape:connector-curvature="0"
           id="path5324"
           d="m -287.46439,1111.4561 13.38453,0"
           style="fill:none;stroke:#000000;stroke-width:2;stroke-linecap:round;stroke-linejoin:miter;stroke-miterlimit:4;stroke-opacity:1;stroke-dasharray:none" />
        <path
           style="fill:none;stroke:#000000;stroke-width:2;stroke-linecap:round;stroke-linejoin:miter;stroke-miterlimit:4;stroke-opacity:1;stroke-dasharray:none"
           d="m -274.07986,1098.0715 0,13.3846"
           id="path5326"
           inkscape:connector-curvature="0" />
        <path
           style="fill:none;stroke:#000000;stroke-width:2;stroke-linecap:round;stroke-linejoin:miter;stroke-miterlimit:4;stroke-opacity:1;stroke-dasharray:none"
           d="m -274.07986,1098.0715 13.38453,0"
           id="path5328"
           inkscape:connector-curvature="0" />
        <path
           inkscape:connector-curvature="0"
           id="path5330"
           d="m -260.69533,1098.0715 0,13.3846"
           style="fill:none;stroke:#000000;stroke-width:2;stroke-linecap:round;stroke-linejoin:miter;stroke-miterlimit:4;stroke-opacity:1;stroke-dasharray:none" />
      </g>
    </g>
    <g
       id="g5358"
       transform="matrix(1.1746435,0,0,0.59438694,37.78612,258.39064)"
       inkscape:export-filename="/home/valentin/icaro/repositorio/icaro-pygtk/imagenes/componentes/componente_un_arg.png"
       inkscape:export-xdpi="90"
       inkscape:export-ydpi="90">
      <path
         inkscape:connector-curvature="0"
         id="rect5346"
         d="m -250.93354,622.54552 4.25821,11.57359 -4.25821,11.55539 13.52072,0 -4.25821,-11.55539 4.25821,-11.57359 -13.52072,0 z"
         style="fill:none;stroke:#000000;stroke-width:1.16463792;stroke-linecap:round;stroke-linejoin:round;stroke-miterlimit:4;stroke-opacity:1" />
      <path
         sodipodi:nodetypes="ccc"
         inkscape:connector-curvature="0"
         id="path5355"
         d="m -248.52788,641.14813 c 2.78097,-3.82081 2.47892,1.01646 4.26787,1.06031 1.75817,0.0431 1.20587,-5.40356 4.27841,-1.17058"
         style="fill:none;stroke:#000000;stroke-width:1.88263643;stroke-linecap:round;stroke-linejoin:round;stroke-miterlimit:4;stroke-opacity:1" />
    </g>
    <path
       style="fill:none;stroke:#000000;stroke-width:2;stroke-linecap:round;stroke-linejoin:round;stroke-miterlimit:4;stroke-opacity:1;stroke-dasharray:none;marker-start:url(#DotS);marker-mid:none;marker-end:url(#Arrow2Mend)"
       d="m -489.82143,687.00503 c 0,0 0.0552,-6.06984 0.0828,-9.10476 0.0319,-3.5127 0.0958,-10.53809 0.0958,-10.53809"
       id="path3208"
       inkscape:connector-curvature="0"
       sodipodi:nodetypes="cac"
       inkscape:export-filename="/home/valentin/icaro/repositorio/icaro-pygtk/imagenes/componentes/ad.xpm.png"
       inkscape:export-xdpi="72.13649"
       inkscape:export-ydpi="72.13649" />
    <path
       id="path5133"
       d="m -489.2991,736.59419 c 0.47641,-0.004 0.93342,0.27114 1.13408,0.73771 l 1.1451,2.66455 c 0.21252,0.49415 0.0686,1.04645 -0.30829,1.38733 l 1.38732,4.04087 c 0.0327,0.0945 0.0459,0.19112 0.0551,0.28628 0.49013,0.49742 0.80958,1.27522 0.82579,2.15806 0.0284,1.54585 -0.88424,2.83605 -2.04796,2.87376 l -0.0551,0 c -1.14404,0 -2.07512,-1.21137 -2.10301,-2.73062 -0.012,-0.65698 0.14187,-1.26392 0.4184,-1.75068 l -1.24419,-3.61146 -0.12112,0.0551 c -0.62209,0.26754 -1.33999,-0.0165 -1.60754,-0.63862 l -1.1451,-2.66455 c -0.26754,-0.62209 0.0165,-1.33999 0.63862,-1.60754 l 2.55444,-1.10105 c 0.15553,-0.0669 0.31465,-0.098 0.47346,-0.0991 z"
       style="fill:#cccccc;fill-opacity:1;stroke:#000000;stroke-width:0.03523376;stroke-linecap:round;stroke-linejoin:round;stroke-miterlimit:4;stroke-opacity:1;stroke-dasharray:none"
       inkscape:connector-curvature="0" />
    <path
       style="fill:#e6e6e6;fill-opacity:1;stroke:#000000;stroke-width:0.03523376;stroke-linecap:round;stroke-linejoin:round;stroke-miterlimit:4;stroke-opacity:1;stroke-dasharray:none"
       d="m -506.88382,736.72002 c -0.47642,-0.004 -0.93343,0.27114 -1.13409,0.73771 l -1.14509,2.66455 c -0.21252,0.49415 -0.0686,1.04646 0.30829,1.38733 l -1.38733,4.04087 c -0.0327,0.0945 -0.0459,0.19113 -0.0551,0.28628 -0.49013,0.49743 -0.80958,1.27522 -0.82579,2.15807 -0.0284,1.54584 0.88424,2.83605 2.04796,2.87375 l 0.055,0 c 1.14405,0 2.07512,-1.21136 2.10302,-2.73062 0.012,-0.65698 -0.14188,-1.26391 -0.4184,-1.75067 l 1.24419,-3.61146 0.12112,0.055 c 0.62209,0.26755 1.33999,-0.0165 1.60754,-0.63861 l 1.14509,-2.66456 c 0.26755,-0.62209 -0.0165,-1.33999 -0.63861,-1.60754 l -2.55445,-1.10105 c -0.15552,-0.0669 -0.31464,-0.0979 -0.47345,-0.0991 z"
       id="rect5108"
       inkscape:connector-curvature="0" />
    <path
       inkscape:connector-curvature="0"
       id="path5106"
       d="m -495.01917,746.88276 c -0.85032,0 -1.53046,0.93785 -1.53046,2.10302 l 0,3.09396 c -0.66644,0.10891 -1.16712,0.68915 -1.16712,1.38733 0,0.77638 0.62196,1.39834 1.39834,1.39834 l 2.41131,0 c 0.77638,0 1.40935,-0.62196 1.40935,-1.39834 0,-0.63135 -0.41902,-1.16684 -0.99095,-1.34329 l 0,-3.138 c 0,-1.16517 -0.68014,-2.10302 -1.53047,-2.10302 z"
       style="fill:#333333;fill-opacity:1;stroke:#000000;stroke-width:0.04217101;stroke-linecap:round;stroke-linejoin:round;stroke-miterlimit:4;stroke-opacity:1;stroke-dasharray:none" />
    <path
       style="fill:#333333;fill-opacity:1;stroke:#000000;stroke-width:0.04217101;stroke-linecap:round;stroke-linejoin:round;stroke-miterlimit:4;stroke-opacity:1;stroke-dasharray:none"
       d="m -500.61882,746.88276 c -0.85032,0 -1.53046,0.93785 -1.53046,2.10302 l 0,3.09396 c -0.66644,0.10891 -1.16712,0.68915 -1.16712,1.38733 0,0.77638 0.62196,1.39834 1.39834,1.39834 l 2.41131,0 c 0.77638,0 1.40935,-0.62196 1.40935,-1.39834 0,-0.63135 -0.41902,-1.16684 -0.99095,-1.34329 l 0,-3.138 c 0,-1.16517 -0.68014,-2.10302 -1.53047,-2.10302 z"
       id="rect5075"
       inkscape:connector-curvature="0" />
    <path
       style="fill:#cccccc;fill-opacity:1;stroke:#000000;stroke-width:0.03523376;stroke-linecap:round;stroke-linejoin:round;stroke-miterlimit:4;stroke-opacity:1"
       d="m -505.75784,743.82381 1.90582,-4.22805 1.90582,-2.11403 1.90582,0 1.90582,0 1.90583,0 1.90582,0 1.90582,2.11403 1.90582,4.22805 0,1.69884 0,1.69885 0,0.99417 -1.40935,0.2895 -0.49647,2.11402 -1.90582,0 -1.90582,0 -1.90583,0 -1.90581,0 -1.90583,0 -1.90582,0 -0.49647,-2.11402 -1.40935,-0.2895 0,-0.99417 0,-1.69885 z"
       id="rect5066"
       inkscape:connector-curvature="0"
       sodipodi:nodetypes="ccccccccccccccccccccccccc" />
    <g
       id="g3057"
       inkscape:export-filename="/home/valentin/icaro/repositorio/icaro-pygtk/imagenes/componentes/robot.png"
       inkscape:export-xdpi="72"
       inkscape:export-ydpi="72">
      <rect
         y="731.79498"
         x="-568.45996"
         height="28.491432"
         width="30.161888"
         id="rect5038"
         style="fill:#ffffff;fill-opacity:1;stroke:#000000;stroke-width:1.55216193;stroke-linecap:round;stroke-linejoin:round;stroke-miterlimit:4;stroke-opacity:1;stroke-dasharray:none" />
      <path
         sodipodi:nodetypes="ccccc"
         inkscape:connector-curvature="0"
         id="rect5063"
         d="m -558.22638,751.60488 10.20257,-2.43523 -0.3105,4.56477 -7.55336,1.80291 z"
         style="fill:#cccccc;fill-opacity:1;stroke:#000000;stroke-width:0.502;stroke-linecap:round;stroke-linejoin:round;stroke-miterlimit:4;stroke-opacity:1;stroke-dasharray:none" />
      <path
         sodipodi:nodetypes="zcczcccccccccccccccccz"
         inkscape:connector-curvature="0"
         id="rect5060"
         d="m -560.41036,737.88953 c 0.64778,-0.87541 1.34336,-1.75349 2.28807,-2.09383 1.94132,-1.04034 3.59851,-0.95724 5.71078,-0.85346 1.00294,0.0493 1.92483,0.68562 2.80025,1.3334 0.87543,0.64778 2.2493,15.05072 2.2493,15.05072 l -0.67495,0.10088 -0.87623,-1.24597 -0.47366,1.44771 -0.87623,-1.24598 -0.47366,1.44771 -0.87622,-1.24597 -0.47366,1.44771 -0.87625,-1.24597 -0.47366,1.44771 -0.87621,-1.24598 -0.47368,1.44771 -0.8762,-1.24597 -0.47367,1.44771 -0.87624,-1.24598 -0.47366,1.44771 -0.67494,0.10088 c 0,0 -2.89706,-14.17529 -2.24928,-15.05072 z"
         style="fill:#cccccc;fill-opacity:1;stroke:#000000;stroke-width:0.501;stroke-linecap:round;stroke-linejoin:round;stroke-miterlimit:4;stroke-opacity:1;stroke-dasharray:none" />
      <path
         transform="matrix(0.67342187,-0.10064071,0.10064071,0.67342187,-272.34946,201.3713)"
         sodipodi:open="true"
         sodipodi:end="7.8539816"
         sodipodi:start="1.5951817"
         d="m -533.25345,733.96777 a 5.2678571,5.2678571 0 1 1 0.12845,0.002"
         sodipodi:ry="5.2678571"
         sodipodi:rx="5.2678571"
         sodipodi:cy="728.70148"
         sodipodi:cx="-533.125"
         id="path5040"
         style="fill:#4d4d4d;fill-opacity:1;stroke:#000000;stroke-width:1.26890776;stroke-linecap:round;stroke-linejoin:round;stroke-miterlimit:4;stroke-opacity:1;stroke-dasharray:none"
         sodipodi:type="arc" />
      <path
         sodipodi:open="true"
         sodipodi:end="7.8539816"
         sodipodi:start="1.5951817"
         d="m -533.25345,733.96777 a 5.2678571,5.2678571 0 1 1 0.12845,0.002"
         sodipodi:ry="5.2678571"
         sodipodi:rx="5.2678571"
         sodipodi:cy="728.70148"
         sodipodi:cx="-533.125"
         id="path5040-4"
         style="fill:#666666;fill-opacity:1;stroke:#000000;stroke-width:1.32285714;stroke-linecap:round;stroke-linejoin:round;stroke-miterlimit:4;stroke-opacity:1;stroke-dasharray:none"
         sodipodi:type="arc"
         transform="matrix(0.51680759,-0.07723523,0.07723523,0.51680759,-329.82794,327.47869)" />
    </g>
    <path
       style="fill:none;stroke:#000000;stroke-width:1;stroke-linecap:round;stroke-linejoin:round;stroke-miterlimit:4;stroke-opacity:1;stroke-dasharray:none;marker-start:url(#Arrow1Mstart);marker-end:url(#DotS)"
       d="m -596.49508,718.25423 0,19.1929"
       id="path5146"
       inkscape:connector-curvature="0" />
    <path
       inkscape:export-ydpi="72.13649"
       inkscape:export-xdpi="72.13649"
       inkscape:export-filename="/home/valentin/icaro/repositorio/icaro-pygtk/imagenes/componentes/at.png"
       sodipodi:nodetypes="cac"
       inkscape:connector-curvature="0"
       id="path5730"
       d="m -456.96429,679.86051 c 0,0 0.0552,6.06984 0.0828,9.10476 0.0319,3.5127 0.0958,10.53809 0.0958,10.53809"
       style="fill:none;stroke:#000000;stroke-width:2;stroke-linecap:round;stroke-linejoin:round;stroke-miterlimit:4;stroke-opacity:1;stroke-dasharray:none;marker-start:url(#DotS);marker-mid:none;marker-end:url(#Arrow2Mend)" />
    <path
       inkscape:export-ydpi="72.13649"
       inkscape:export-xdpi="72.13649"
       inkscape:export-filename="/home/valentin/icaro/repositorio/icaro-pygtk/imagenes/componentes/de.png"
       sodipodi:nodetypes="cac"
       inkscape:connector-curvature="0"
       id="path5732"
       d="m -478.39286,809.14789 c 0,0 -1.32513,-6.41603 0.0828,-9.10476 2.24959,-4.29605 11.88151,-8.39523 11.88151,-8.39523"
       style="fill:none;stroke:#000000;stroke-width:2;stroke-linecap:round;stroke-linejoin:round;stroke-miterlimit:4;stroke-opacity:1;stroke-dasharray:none;marker-start:url(#DotS);marker-mid:none;marker-end:url(#Arrow2Mend)" />
    <path
       style="fill:none;stroke:#000000;stroke-width:2;stroke-linecap:round;stroke-linejoin:round;stroke-miterlimit:4;stroke-opacity:1;stroke-dasharray:none;marker-start:url(#DotS);marker-mid:none;marker-end:url(#Arrow2Mend)"
       d="m -506.24111,809.14789 c 0,0 1.32513,-6.41603 -0.0828,-9.10476 -2.24959,-4.29605 -11.88151,-8.39523 -11.88151,-8.39523"
       id="path5734"
       inkscape:connector-curvature="0"
       sodipodi:nodetypes="cac"
       inkscape:export-filename="/home/valentin/icaro/repositorio/icaro-pygtk/imagenes/componentes/iz.png"
       inkscape:export-xdpi="72.13649"
       inkscape:export-ydpi="72.13649" />
    <text
       xml:space="preserve"
       style="font-size:40px;font-style:normal;font-weight:normal;line-height:125%;letter-spacing:0px;word-spacing:0px;fill:#000000;fill-opacity:1;stroke:none;font-family:Sans"
       x="-930.71429"
       y="771.29077"
       id="text3169"
       sodipodi:linespacing="125%"
       inkscape:export-filename="/home/valentin/icaro/repositorio/icaro-pygtk/imagenes/componentes/numero.png"
       inkscape:export-xdpi="26.16695"
       inkscape:export-ydpi="26.16695"><tspan
         sodipodi:role="line"
         id="tspan3171"
         x="-930.71429"
         y="771.29077">123</tspan></text>
    <rect
       style="fill:#800000;fill-opacity:1;stroke:none;stroke-width:0.50199996999999996;stroke-linecap:round;stroke-linejoin:round;stroke-miterlimit:4;stroke-opacity:1;stroke-dasharray:none"
       id="rect3175"
       width="66.785713"
       height="12.5"
       x="-808.21429"
       y="771.29077"
       ry="6.25"
       inkscape:export-filename="/home/valentin/icaro/repositorio/icaro-pygtk/imagenes/componentes/=.png"
       inkscape:export-xdpi="26.951876"
       inkscape:export-ydpi="26.951876" />
    <rect
       ry="6.25"
       y="790.93365"
       x="-808.21429"
       height="12.5"
       width="66.785713"
       id="rect3188"
       style="fill:#800000;fill-opacity:1;stroke:none;stroke-width:0.50199996999999996;stroke-linecap:round;stroke-linejoin:round;stroke-miterlimit:4;stroke-opacity:1;stroke-dasharray:none"
       inkscape:export-filename="/home/valentin/icaro/repositorio/icaro-pygtk/imagenes/componentes/=.png"
       inkscape:export-xdpi="26.951876"
       inkscape:export-ydpi="26.951876" />
  </g>
</svg>
