<?xml version="1.0" encoding="UTF-8" standalone="no"?>
<!DOCTYPE svg PUBLIC "-//W3C//DTD SVG 1.1//EN"
 "http://www.w3.org/Graphics/SVG/1.1/DTD/svg11.dtd">
<!-- Generated by graphviz version 2.28.0 (20120228.1928)
 -->
<!-- Title: packages_uml Pages: 1 -->
<svg width="4190pt" height="44pt"
 viewBox="0.00 0.00 4190.00 44.00" xmlns="http://www.w3.org/2000/svg" xmlns:xlink="http://www.w3.org/1999/xlink">
<g id="graph1" class="graph" transform="scale(1 1) rotate(0) translate(4 40)">
<title>packages_uml</title>
<polygon fill="white" stroke="white" points="-4,5 -4,-40 4187,-40 4187,5 -4,5"/>
<!-- 3 -->
<g id="node1" class="node"><title>3</title>
<polygon fill="none" stroke="black" points="262,-36 0,-36 0,-0 262,-0 262,-36"/>
<text text-anchor="middle" x="131" y="-14.3" font-family="Times,serif" font-size="14.00">/home/valentin/github/icaro&#45;bloques/icaro.py</text>
</g>
<!-- 7 -->
<g id="node2" class="node"><title>7</title>
<polygon fill="none" stroke="black" points="558,-36 280,-36 280,-0 558,-0 558,-36"/>
<text text-anchor="middle" x="419" y="-14.3" font-family="Times,serif" font-size="14.00">/home/valentin/github/icaro&#45;bloques/creditos.py</text>
</g>
<!-- 9 -->
<g id="node3" class="node"><title>9</title>
<polygon fill="none" stroke="black" points="844,-36 576,-36 576,-0 844,-0 844,-36"/>
<text text-anchor="middle" x="710" y="-14.3" font-family="Times,serif" font-size="14.00">/home/valentin/github/icaro&#45;bloques/nuevo.py</text>
</g>
<!-- 10 -->
<g id="node4" class="node"><title>10</title>
<polygon fill="none" stroke="black" points="1204,-36 862,-36 862,-0 1204,-0 1204,-36"/>
<text text-anchor="middle" x="1033" y="-14.3" font-family="Times,serif" font-size="14.00">/home/valentin/github/icaro&#45;bloques/componente_inicial.py</text>
</g>
<!-- 12 -->
<g id="node5" class="node"><title>12</title>
<polygon fill="none" stroke="black" points="1484,-36 1222,-36 1222,-0 1484,-0 1484,-36"/>
<text text-anchor="middle" x="1353" y="-14.3" font-family="Times,serif" font-size="14.00">/home/valentin/github/icaro&#45;bloques/texto.py</text>
</g>
<!-- 14 -->
<g id="node6" class="node"><title>14</title>
<polygon fill="none" stroke="black" points="1764,-36 1502,-36 1502,-0 1764,-0 1764,-36"/>
<text text-anchor="middle" x="1633" y="-14.3" font-family="Times,serif" font-size="14.00">/home/valentin/github/icaro&#45;bloques/visor.py</text>
</g>
<!-- 16 -->
<g id="node7" class="node"><title>16</title>
<polygon fill="none" stroke="black" points="2042,-36 1782,-36 1782,-0 2042,-0 2042,-36"/>
<text text-anchor="middle" x="1912" y="-14.3" font-family="Times,serif" font-size="14.00">/home/valentin/github/icaro&#45;bloques/abrir.py</text>
</g>
<!-- 17 -->
<g id="node8" class="node"><title>17</title>
<polygon fill="none" stroke="black" points="2340,-36 2060,-36 2060,-0 2340,-0 2340,-36"/>
<text text-anchor="middle" x="2200" y="-14.3" font-family="Times,serif" font-size="14.00">/home/valentin/github/icaro&#45;bloques/__init__.py</text>
</g>
<!-- 18 -->
<g id="node9" class="node"><title>18</title>
<polygon fill="none" stroke="black" points="2620,-36 2358,-36 2358,-0 2620,-0 2620,-36"/>
<text text-anchor="middle" x="2489" y="-14.3" font-family="Times,serif" font-size="14.00">/home/valentin/github/icaro&#45;bloques/crear.py</text>
</g>
<!-- 19 -->
<g id="node10" class="node"><title>19</title>
<polygon fill="none" stroke="black" points="2902,-36 2638,-36 2638,-0 2902,-0 2902,-36"/>
<text text-anchor="middle" x="2770" y="-14.3" font-family="Times,serif" font-size="14.00">/home/valentin/github/icaro&#45;bloques/carga.py</text>
</g>
<!-- 20 -->
<g id="node11" class="node"><title>20</title>
<polygon fill="none" stroke="black" points="3257.5,-36 2920.5,-36 2920.5,-0 3257.5,-0 3257.5,-36"/>
<text text-anchor="middle" x="3089" y="-14.3" font-family="Times,serif" font-size="14.00">/home/valentin/github/icaro&#45;bloques/componente_datos.py</text>
</g>
<!-- 22 -->
<g id="node12" class="node"><title>22</title>
<polygon fill="none" stroke="black" points="3552,-36 3276,-36 3276,-0 3552,-0 3552,-36"/>
<text text-anchor="middle" x="3414" y="-14.3" font-family="Times,serif" font-size="14.00">/home/valentin/github/icaro&#45;bloques/guardar.py</text>
</g>
<!-- 23 -->
<g id="node13" class="node"><title>23</title>
<polygon fill="none" stroke="black" points="3861.5,-36 3570.5,-36 3570.5,-0 3861.5,-0 3861.5,-36"/>
<text text-anchor="middle" x="3716" y="-14.3" font-family="Times,serif" font-size="14.00">/home/valentin/github/icaro&#45;bloques/navegador.py</text>
</g>
<!-- 25 -->
<g id="node14" class="node"><title>25</title>
<polygon fill="none" stroke="black" points="4182,-36 3880,-36 3880,-0 4182,-0 4182,-36"/>
<text text-anchor="middle" x="4031" y="-14.3" font-family="Times,serif" font-size="14.00">/home/valentin/github/icaro&#45;bloques/componente.py</text>
</g>
</g>
</svg>
