<?xml version="1.0" encoding="UTF-8" standalone="no"?>
<!-- Created with Inkscape (http://www.inkscape.org/) -->

<svg
   xmlns:dc="http://purl.org/dc/elements/1.1/"
   xmlns:cc="http://creativecommons.org/ns#"
   xmlns:rdf="http://www.w3.org/1999/02/22-rdf-syntax-ns#"
   xmlns:svg="http://www.w3.org/2000/svg"
   xmlns="http://www.w3.org/2000/svg"
   xmlns:sodipodi="http://sodipodi.sourceforge.net/DTD/sodipodi-0.dtd"
   xmlns:inkscape="http://www.inkscape.org/namespaces/inkscape"
   width="210mm"
   height="297mm"
   id="svg3025"
   version="1.1"
   inkscape:version="0.48.1 r9760"
   sodipodi:docname="Documento nuevo 2">
  <defs
     id="defs3027" />
  <sodipodi:namedview
     id="base"
     pagecolor="#ffffff"
     bordercolor="#666666"
     borderopacity="1.0"
     inkscape:pageopacity="0.0"
     inkscape:pageshadow="2"
     inkscape:zoom="0.35"
     inkscape:cx="466.94113"
     inkscape:cy="441.57441"
     inkscape:document-units="px"
     inkscape:current-layer="layer1"
     showgrid="false"
     inkscape:window-width="1280"
     inkscape:window-height="748"
     inkscape:window-x="0"
     inkscape:window-y="30"
     inkscape:window-maximized="1" />
  <metadata
     id="metadata3030">
    <rdf:RDF>
      <cc:Work
         rdf:about="">
        <dc:format>image/svg+xml</dc:format>
        <dc:type
           rdf:resource="http://purl.org/dc/dcmitype/StillImage" />
        <dc:title></dc:title>
      </cc:Work>
    </rdf:RDF>
  </metadata>
  <g
     inkscape:label="Capa 1"
     inkscape:groupmode="layer"
     id="layer1">
    <path
       style="fill:#1d3c6f"
       inkscape:connector-curvature="0"
       d="m 487.36198,151.11068 c -4.544,-2.311 -8.621,0.909 -8.621,0.909 l -71.143,48.03 c -37.138,-3.278 -79.711,2.328 -122.316,17.957 -42.614,15.632 -78.713,38.879 -104.925,65.396 l -85.325003,9.363 c 0,0 -5.19,0.178 -7.165,4.881 -1.975,4.703 1.334,8.844 1.334,8.844 l 45.525003,62.173 c -1.361,13.072 0.026,25.917 4.499,38.113 23.115,63.017 127.509,62.253 188.599,56.015 26.516,-2.712 60.444,-15.188 81.545,-29.784 50.377,-34.828 132.282,-103.014 109.384,-165.442 -4.474,-12.196 -11.729,-22.888 -21.209,-31.975 l -5.472,-76.874 c 0,0 -0.164,-5.293 -4.71,-7.606 m -196.329,263.53 c -51.398,18.854 -108.003,-4.815 -131.276,-53.131 10.961,-11.814 24.776,-21.308 40.945,-27.238 10.376,-3.807 20.958,-5.85 31.444,-6.34 0.25,14.554 2.963,29.735 8.471,44.748 6,16.367 14.64,30.759 24.97,42.623 0.212,-15.73 -2.508,-32.296 -8.508,-48.658 -5.381,-14.671 -12.889,-27.734 -21.822,-38.83 40.315,-0.668 78.606,21.986 96.718,59.58 -10.96,11.82 -24.778,21.314 -40.942,27.246 m 64.93,-2.123 c -12.8,-0.37 -17.925,-6.002 -17.925,-6.002 9.993,-8.934 26.507,-10.394 26.507,-10.394 -2.083,8.16 -8.582,16.396 -8.582,16.396 m 52.08,-40.798 c -16.172,5.934 -32.854,7.623 -48.861,5.693 -10.467,-40.331 4.032,-82.315 35.126,-107.873 0.691,13.165 3.372,26.782 8.317,40.256 6.003,16.362 14.639,30.763 24.977,42.62 0.209,-15.728 -2.512,-32.296 -8.51,-48.662 -5.151,-14.045 -12.259,-26.627 -20.697,-37.416 7.935,-5.885 16.833,-10.756 26.58,-14.33 16.166,-5.932 32.845,-7.622 48.845,-5.698 13.486,51.904 -14.388,106.557 -65.777,125.41"
       id="path10" />
    <path
       style="fill:#1d3c6f"
       inkscape:connector-curvature="0"
       d="m 338.64898,733.33968 c -2.473,-18.96 -18.652,-33.608 -38.286,-33.608 -19.631,0 -35.806,14.648 -38.287,33.608 h 76.573 z"
       id="path12" />
    <path
       style="fill:#1d3c6f"
       inkscape:connector-curvature="0"
       d="m 454.00798,549.76268 c -46.502,-41.642 -73.078,-75.384 -80.566,-128.897 0,0 -20.37,7.676 -24.211,21.899 0,0 -4.609,28.444 -23.825,64.946 -19.212,36.503 -29.589,73.765 -29.589,114.881 0,41.124 15.372,85.313 29.589,110.681 h 149.05 c 0,0 33.372,-28.07 38.192,-74.327 5.051,-48.523 -11.631,-67.088 -58.64,-109.183"
       id="path14" />
    <path
       style="fill:#1d3c6f"
       inkscape:connector-curvature="0"
       d="m 409.08998,567.81468 c 0,0 -39.913,38.228 -27.576,87.943 12.338,49.726 41.662,65.396 71.654,73.85 29.983,8.461 86.217,5.829 127.818,-38.391 41.607,-44.219 48.992,-117.972 4.123,-173.637 -44.878,-55.66 -94.499,-50.228 -108.018,-17.054 -13.522,33.179 13.507,48.302 22.832,51.578 9.323,3.269 66.417,18.909 60.288,86.544 -6.133,67.637 -74.815,75.082 -74.815,75.082 0,0 -39.096,10.709 -75.13,-33.675 -36.038,-44.384 -3.69,-96.757 5.946,-104.683 l -7.122,-7.557 z"
       id="path16" />
    <path
       style="fill:#1d3c6f"
       inkscape:connector-curvature="0"
       d="m 409.22898,749.54868 c -7.012,0 -14.218,1.328 -21.798,3.98 -9.669,3.603 -14.598,8.151 -14.598,13.649 0,6.635 5.876,12.132 12.513,12.132 2.085,0 4.358,-0.57 6.823,-1.896 6.065,-3.224 11.751,-4.739 17.06,-4.739 4.172,0 7.014,1.138 8.72,3.222 1.326,1.707 1.896,4.928 2.086,9.479 -16.68,0.189 -28.623,2.274 -36.018,6.254 -10.046,5.688 -14.972,16.303 -14.972,31.656 0,19.525 12.507,32.607 32.032,32.607 8.909,0 15.354,-2.468 19.716,-7.584 1.703,5.116 5.687,7.584 11.942,7.584 7.014,0 12.51,-4.742 12.51,-11.565 l 0,-55.921 c 10e-4,-24.262 -11.753,-38.858 -36.016,-38.858 m 10.995,72.603 c 0,2.841 -1.897,5.498 -5.496,7.583 -3.223,2.085 -6.257,3.031 -9.1,3.031 -6.255,0 -11.373,-3.602 -11.373,-9.479 0,-7.013 2.085,-11.562 6.446,-13.269 2.46,-0.948 7.77,-1.517 16.111,-1.517 l 3.411,0 0,13.651 z m -65.583,5.308 c -1.708,0 -3.793,0.567 -6.067,1.514 -5.496,2.468 -10.613,3.603 -14.973,3.603 -11.186,0 -16.871,-9.099 -16.871,-27.105 0,-21.801 7.015,-32.795 20.851,-32.795 3.602,0 7.582,0.57 11.94,1.895 1.896,0.57 3.604,0.948 4.931,0.948 6.255,0 12.32,-5.119 12.32,-11.187 0,-4.736 -3.791,-8.529 -11.562,-11.559 -6.066,-2.279 -11.942,-3.413 -17.63,-3.413 -15.733,0 -27.486,5.687 -35.448,16.869 -7.015,9.856 -10.615,22.938 -10.615,39.241 0,14.974 3.226,26.917 9.667,35.635 7.203,9.668 18.011,14.6 32.417,14.6 10.045,0 18.955,-2.088 26.728,-6.259 4.547,-2.464 6.823,-5.685 6.823,-9.854 0,-6.638 -5.876,-12.133 -12.511,-12.133 m 148.079,-65.312 c 0,-6.823 -5.308,-11.375 -12.132,-11.375 -7.396,0 -12.701,2.085 -15.924,6.066 -2.086,-3.981 -5.878,-6.066 -11.373,-6.066 -6.825,0 -12.514,4.742 -12.514,11.565 l 0,83.406 c 0,7.015 5.499,11.562 12.514,11.562 7.012,0 12.698,-4.548 12.698,-11.562 l 0,-57.436 c 0,-8.909 5.311,-14.218 14.218,-14.218 7.013,10e-4 12.513,-4.925 12.513,-11.942 m 23.966,-12.976 c -8.134,0 -15.241,1.753 -21.353,5.294 1.284,2.699 1.933,6.302 0.828,11.044 -2.281,9.791 -9.437,14.199 -20.839,15.104 -2.229,6.686 -3.37,14.121 -3.37,22.39 0,15.546 3.032,27.867 9.289,36.969 7.201,10.614 18.197,15.923 32.98,15.923 14.406,0 25.782,-5.688 34.12,-16.874 7.393,-10.047 10.995,-22.557 10.995,-37.531 0,-14.977 -3.222,-27.108 -9.855,-36.396 -7.391,-10.618 -18.387,-15.923 -32.795,-15.923 m 13.461,72.411 c -3.603,7.391 -8.911,11.183 -15.925,11.183 -7.014,0 -11.94,-3.413 -14.596,-10.235 -1.708,-4.359 -2.464,-10.993 -2.464,-19.527 0,-7.581 1.327,-14.217 3.98,-19.712 3.603,-7.205 8.718,-10.807 15.543,-10.807 11.755,0 17.631,9.669 17.631,29.005 0,7.772 -1.325,14.407 -4.169,20.093 m -267.28,-71.956 c -7.011,0 -12.51,4.737 -12.51,11.754 l 0,84.1 c 0,7.015 5.499,11.755 12.51,11.755 7.396,0 12.704,-4.74 12.704,-11.755 l 0,-84.1 c 0,-7.017 -5.309,-11.754 -12.704,-11.754"
       id="path18"
       sodipodi:nodetypes="ccsscscccsscssccccsscscccccssscsscscscscsccscssssssccccccscscscccscscssccsssssc" />
  </g>
</svg>
