<?xml version="1.0" encoding="UTF-8" standalone="no"?>
<svg
   xmlns:dc="http://purl.org/dc/elements/1.1/"
   xmlns:cc="http://creativecommons.org/ns#"
   xmlns:rdf="http://www.w3.org/1999/02/22-rdf-syntax-ns#"
   xmlns:svg="http://www.w3.org/2000/svg"
   xmlns="http://www.w3.org/2000/svg"
   xmlns:sodipodi="http://sodipodi.sourceforge.net/DTD/sodipodi-0.dtd"
   xmlns:inkscape="http://www.inkscape.org/namespaces/inkscape"
   width="340"
   height="440"
   id="Mano"
   version="1.0"
   inkscape:version="0.48.3.1 r9886"
   sodipodi:docname="EDICION.svg"
   inkscape:export-filename="/home/valentin/github/icaro-bloques/imagenes/mouse/puntero.png"
   inkscape:export-xdpi="6.0882354"
   inkscape:export-ydpi="6.0882354">
  <defs
     id="defs10" />
  <sodipodi:namedview
     pagecolor="#ffffff"
     bordercolor="#666666"
     borderopacity="1"
     objecttolerance="10"
     gridtolerance="10"
     guidetolerance="10"
     inkscape:pageopacity="0"
     inkscape:pageshadow="2"
     inkscape:window-width="1366"
     inkscape:window-height="709"
     id="namedview8"
     showgrid="false"
     inkscape:zoom="0.19606142"
     inkscape:cx="-1306.6635"
     inkscape:cy="-327.85689"
     inkscape:window-x="0"
     inkscape:window-y="27"
     inkscape:window-maximized="1"
     inkscape:current-layer="Mano" />
  <metadata
     id="Metadata">
    <rdf:RDF>
      <cc:Work
         rdf:about="">
        <dc:format>image/svg+xml</dc:format>
        <dc:type
           rdf:resource="http://purl.org/dc/dcmitype/StillImage" />
        <dc:title></dc:title>
      </cc:Work>
    </rdf:RDF>
  </metadata>
  <g
     id="g7613"
     transform="matrix(0.62860051,0,0,0.62860051,418.93299,170.65938)"
     inkscape:export-filename="/home/valentin/github/icaro-bloques/imagenes/mouse/edicion.png"
     inkscape:export-xdpi="8.9362326"
     inkscape:export-ydpi="8.9362326">
    <path
       inkscape:connector-curvature="0"
       id="rect7526"
       d="m -400.808,-12.016285 c -3.3513,0 -6.039,2.6996903 -6.039,6.0509903 l 0,84.1844407 -84.1965,0 c -3.3512,0 -6.0509,2.69969 -6.0509,6.05098 l 0,22.615994 c 0,3.35129 2.6997,6.05098 6.0509,6.05098 l 84.1965,0 0,84.19648 c 0,3.35129 2.6877,6.03895 6.039,6.03895 l 22.616,0 c 3.3513,0 6.051,-2.68766 6.051,-6.03895 l 0,-84.19648 84.1964,0 c 3.3513,0 6.039,-2.69969 6.039,-6.05098 l 0,-22.615994 c 0,-3.35129 -2.6877,-6.05098 -6.039,-6.05098 l -84.1964,0 0,-84.1844407 c 0,-3.3513 -2.6997,-6.0509903 -6.051,-6.0509903 l -22.616,0 z"
       style="fill:#4d4d4d;stroke:#000000;stroke-width:0.38495317;stroke-opacity:1" />
    <g
       id="g7607">
      <path
         style="fill:#4d4d4d;stroke:#000000;stroke-opacity:1"
         d="m -208.28125,50.46875 58.625,0 0,-179 c 0,-8.70571 -7.01304,-15.71875 -15.71875,-15.71875 l -179.03125,0 0,58.59375 120.40625,0 c 8.70571,0 15.71875,7.01303 15.71875,15.71875 l 0,120.40625 z"
         id="path7605"
         inkscape:connector-curvature="0" />
      <path
         style="fill:#4d4d4d;stroke:#000000;stroke-opacity:1"
         d="m -344.40625,276.8125 0,58.59375 179.03125,0 c 8.70571,0 15.71875,-7.01304 15.71875,-15.71875 l 0,-179.03125 -58.625,0 0,120.4375 c 0,8.70571 -7.01304,15.71875 -15.71875,15.71875 l -120.40625,0 z"
         id="path7601"
         inkscape:connector-curvature="0" />
      <path
         style="fill:#4d4d4d;stroke:#000000;stroke-opacity:1"
         d="m -570.75,140.65625 -58.59375,0 0,179.03125 c 0,8.70571 7.01295,15.71875 15.71875,15.71875 l 179.0625,0 0,-58.59375 -120.46875,0 c -8.7057,0 -15.71875,-7.01304 -15.71875,-15.71875 l 0,-120.4375 z"
         id="path7597"
         inkscape:connector-curvature="0" />
      <path
         style="fill:#4d4d4d;stroke:#000000;stroke-opacity:1"
         d="m -434.5625,-144.25 -179.0625,0 c -8.7058,0 -15.71875,7.01304 -15.71875,15.71875 l 0,179 58.59375,0 0,-120.40625 c 0,-8.70572 7.01305,-15.71875 15.71875,-15.71875 l 120.46875,0 0,-58.59375 z"
         id="path7593"
         inkscape:connector-curvature="0" />
    </g>
  </g>
</svg>
