<?xml version="1.0" encoding="UTF-8" standalone="no"?>
<!-- Created with Inkscape (http://www.inkscape.org/) -->

<svg
   xmlns:dc="http://purl.org/dc/elements/1.1/"
   xmlns:cc="http://creativecommons.org/ns#"
   xmlns:rdf="http://www.w3.org/1999/02/22-rdf-syntax-ns#"
   xmlns:svg="http://www.w3.org/2000/svg"
   xmlns="http://www.w3.org/2000/svg"
   xmlns:sodipodi="http://sodipodi.sourceforge.net/DTD/sodipodi-0.dtd"
   xmlns:inkscape="http://www.inkscape.org/namespaces/inkscape"
   width="48.370476"
   height="48.370476"
   id="svg3079"
   version="1.1"
   inkscape:version="0.48.3.1 r9886"
   inkscape:export-filename="/home/valentin/github/icaro-bloques/imagenes/logo.png"
   inkscape:export-xdpi="89.302322"
   inkscape:export-ydpi="89.302322"
   sodipodi:docname="Documento nuevo 4">
  <defs
     id="defs3081">
    <linearGradient
       id="XMLID_6_"
       gradientUnits="userSpaceOnUse"
       x1="639.43848"
       y1="212.9072"
       x2="639.43848"
       y2="855.36572">
      <stop
         offset="0"
         style="stop-color:#2478B1"
         id="stop3215" />
      <stop
         offset="1"
         style="stop-color:#2B5E9F"
         id="stop3217" />
    </linearGradient>
  </defs>
  <sodipodi:namedview
     id="base"
     pagecolor="#ffffff"
     bordercolor="#666666"
     borderopacity="1.0"
     inkscape:pageopacity="0.0"
     inkscape:pageshadow="2"
     inkscape:zoom="3.959798"
     inkscape:cx="-6.7608877"
     inkscape:cy="36.686082"
     inkscape:document-units="px"
     inkscape:current-layer="layer1"
     showgrid="false"
     fit-margin-top="0"
     fit-margin-left="0"
     fit-margin-right="0"
     fit-margin-bottom="0"
     inkscape:window-width="1366"
     inkscape:window-height="709"
     inkscape:window-x="0"
     inkscape:window-y="27"
     inkscape:window-maximized="1" />
  <metadata
     id="metadata3084">
    <rdf:RDF>
      <cc:Work
         rdf:about="">
        <dc:format>image/svg+xml</dc:format>
        <dc:type
           rdf:resource="http://purl.org/dc/dcmitype/StillImage" />
        <dc:title></dc:title>
      </cc:Work>
    </rdf:RDF>
  </metadata>
  <g
     inkscape:label="Capa 1"
     inkscape:groupmode="layer"
     id="layer1"
     transform="translate(-106.65305,-762.64661)">
    <g
       id="g4112"
       transform="translate(-2.6617254,-0.37875034)"
       style="stroke:none">
      <path
         id="path2999"
         d="m 137.41462,791.55714 c 0,0 -2.70968,2.59529 -1.87212,5.97042 0.83762,3.37588 2.82842,4.43971 4.86456,5.01365 2.03554,0.57441 5.85324,0.39573 8.67752,-2.60635 2.82468,-3.00201 3.32605,-8.00908 0.27991,-11.78815 -3.04675,-3.77874 -6.4155,-3.40997 -7.3333,-1.15779 -0.91801,2.25251 0.91698,3.2792 1.55005,3.50161 0.63294,0.22193 4.50903,1.28372 4.09293,5.87544 -0.41636,4.59185 -5.07916,5.09729 -5.07916,5.09729 0,0 -2.65421,0.72703 -5.10055,-2.28619 -2.44661,-3.01321 -0.25051,-6.56879 0.40367,-7.10689 l -0.48351,-0.51304 z"
         inkscape:connector-curvature="0"
         style="fill:#1d3c6f;stroke:none" />
      <path
         id="path2995"
         d="m 132.63241,802.79457 c -0.16789,-1.28718 -1.26628,-2.28163 -2.59922,-2.28163 -1.33275,0 -2.43086,0.99445 -2.59929,2.28163 h 5.19851 z"
         inkscape:connector-curvature="0"
         style="fill:#1d3c6f;stroke:none" />
      <path
         id="path2997"
         d="m 140.46409,790.3316 c -3.157,-2.82706 -4.96124,-5.1178 -5.4696,-8.75077 0,0 -1.38291,0.52112 -1.64367,1.48671 0,0 -0.31291,1.93105 -1.61747,4.40916 -1.3043,2.47818 -2.00879,5.00788 -2.00879,7.79923 0,2.7919 1.0436,5.79187 2.00879,7.5141 h 10.11895 c 0,0 2.26561,-1.90567 2.59284,-5.04604 0.34291,-3.29421 -0.78963,-4.55458 -3.98105,-7.41239"
         inkscape:connector-curvature="0"
         style="fill:#1d3c6f;stroke:none" />
      <path
         sodipodi:nodetypes="ccsscscccsscssccccsscscccccssscsscscscscsccscssssssccccccscscscccscscssccsssssc"
         id="path3001"
         d="m 137.42406,803.895 c -0.47604,0 -0.96526,0.0901 -1.47986,0.2702 -0.65642,0.2446 -0.99105,0.55337 -0.99105,0.92662 0,0.45045 0.39892,0.82364 0.8495,0.82364 0.14155,0 0.29586,-0.0387 0.46321,-0.12872 0.41175,-0.21887 0.79777,-0.32173 1.1582,-0.32173 0.28324,0 0.47618,0.0773 0.592,0.21874 0.09,0.11589 0.12872,0.33456 0.14162,0.64353 -1.1324,0.0128 -1.94321,0.15438 -2.44525,0.42458 -0.68202,0.38616 -1.01645,1.10681 -1.01645,2.14912 0,1.32554 0.8491,2.21367 2.17464,2.21367 0.60483,0 1.04238,-0.16755 1.33852,-0.51487 0.11561,0.34732 0.38608,0.51487 0.81073,0.51487 0.47618,0 0.8493,-0.32193 0.8493,-0.78514 l 0,-3.79646 c 7e-5,-1.64714 -0.7979,-2.63805 -2.44511,-2.63805 m 0.74645,4.92899 c 0,0.19287 -0.12879,0.37326 -0.37313,0.51481 -0.2188,0.14155 -0.42478,0.20577 -0.61779,0.20577 -0.42465,0 -0.77211,-0.24454 -0.77211,-0.64353 0,-0.47611 0.14155,-0.78494 0.43762,-0.90082 0.16701,-0.0644 0.5275,-0.10299 1.09377,-0.10299 l 0.23157,0 0,0.92676 z m -4.45241,0.36036 c -0.11596,0 -0.25751,0.0385 -0.41189,0.10278 -0.37312,0.16755 -0.72051,0.24461 -1.01651,0.24461 -0.75941,0 -1.14536,-0.61773 -1.14536,-1.84015 0,-1.48006 0.47624,-2.22644 1.41556,-2.22644 0.24454,0 0.51474,0.0387 0.8106,0.12865 0.12872,0.0387 0.24468,0.0644 0.33477,0.0644 0.42465,0 0.8364,-0.34753 0.8364,-0.75948 0,-0.32153 -0.25737,-0.57903 -0.78494,-0.78474 -0.41182,-0.15472 -0.81074,-0.23171 -1.1969,-0.23171 -1.0681,0 -1.86601,0.38609 -2.40655,1.14523 -0.47624,0.66912 -0.72065,1.55726 -0.72065,2.66406 0,1.01658 0.21902,1.82739 0.65629,2.41925 0.48901,0.65636 1.22276,0.99119 2.20078,0.99119 0.68195,0 1.28685,-0.14176 1.81456,-0.42492 0.30869,-0.16728 0.46321,-0.38596 0.46321,-0.66899 0,-0.45065 -0.39892,-0.8237 -0.84937,-0.8237 m 10.05303,-4.43401 c 0,-0.46321 -0.36036,-0.77225 -0.82364,-0.77225 -0.50211,0 -0.86226,0.14155 -1.08107,0.41182 -0.14162,-0.27027 -0.39906,-0.41182 -0.77211,-0.41182 -0.46335,0 -0.84957,0.32194 -0.84957,0.78515 l 0,5.6624 c 0,0.47625 0.37332,0.78494 0.84957,0.78494 0.47604,0 0.86206,-0.30876 0.86206,-0.78494 l 0,-3.89931 c 0,-0.60483 0.36056,-0.96525 0.96526,-0.96525 0.47611,6e-5 0.8495,-0.33436 0.8495,-0.81074 m 1.62704,-0.88094 c -0.55221,0 -1.0347,0.11901 -1.44964,0.35941 0.0872,0.18323 0.13123,0.42784 0.0562,0.74977 -0.15486,0.66471 -0.64068,0.96397 -1.41475,1.02541 -0.15133,0.45391 -0.22879,0.95867 -0.22879,1.52005 0,1.05541 0.20584,1.89188 0.63062,2.50981 0.48888,0.72058 1.23539,1.08101 2.23901,1.08101 0.97801,0 1.75033,-0.38616 2.31639,-1.14557 0.50191,-0.68209 0.74645,-1.53139 0.74645,-2.54797 0,-1.01678 -0.21874,-1.84035 -0.66906,-2.47091 -0.50177,-0.72085 -1.24828,-1.08101 -2.22644,-1.08101 m 0.91387,4.91596 c -0.24461,0.50177 -0.60497,0.75921 -1.08115,0.75921 -0.47617,0 -0.8106,-0.23171 -0.99091,-0.69485 -0.11596,-0.29593 -0.16728,-0.74631 -0.16728,-1.32568 0,-0.51467 0.0901,-0.96519 0.2702,-1.33824 0.2446,-0.48915 0.59186,-0.73369 1.05521,-0.73369 0.79804,0 1.19696,0.65643 1.19696,1.96914 0,0.52764 -0.09,0.97809 -0.28303,1.36411 m -18.14555,-4.88507 c -0.47597,0 -0.8493,0.3216 -0.8493,0.79798 l 0,5.70952 c 0,0.47624 0.37333,0.79804 0.8493,0.79804 0.50211,0 0.86247,-0.3218 0.86247,-0.79804 l 0,-5.70952 c 0,-0.47638 -0.36042,-0.79798 -0.86247,-0.79798"
         inkscape:connector-curvature="0"
         style="fill:#1d3c6f;stroke:none" />
      <path
         id="path2993"
         d="m 142.72848,763.26726 c -0.30849,-0.1569 -0.58528,0.0617 -0.58528,0.0617 l -4.82987,3.26074 c -2.52128,-0.22254 -5.41155,0.15804 -8.30399,1.21909 -2.89305,1.06125 -5.34379,2.63948 -7.12332,4.43971 l -5.79268,0.63565 c 0,0 -0.35235,0.0121 -0.48643,0.33137 -0.13408,0.31929 0.0906,0.60042 0.0906,0.60042 l 3.09068,4.2209 c -0.0924,0.88746 0.002,1.7595 0.30544,2.58748 1.56926,4.2782 8.65654,4.22633 12.80391,3.80284 1.80017,-0.18412 4.10352,-1.03111 5.53606,-2.02203 3.42008,-2.36446 8.98058,-6.99358 7.42604,-11.2318 -0.30373,-0.82798 -0.79627,-1.55385 -1.43987,-2.17077 l -0.37149,-5.21894 c 0,0 -0.0111,-0.35934 -0.31976,-0.51637 m -13.3287,17.89095 c -3.4894,1.27999 -7.33229,-0.32689 -8.91228,-3.60704 0.74413,-0.80205 1.68203,-1.44659 2.77974,-1.84918 0.70442,-0.25845 1.42283,-0.39715 2.13472,-0.43042 0.017,0.98807 0.20116,2.0187 0.57509,3.03793 0.40734,1.11115 0.99391,2.08821 1.69521,2.89366 0.0144,-1.06791 -0.17027,-2.19257 -0.57761,-3.30338 -0.36531,-0.99601 -0.87503,-1.88285 -1.48149,-2.63615 2.73697,-0.0453 5.33654,1.49262 6.56615,4.04486 -0.74407,0.80246 -1.68217,1.447 -2.77953,1.84972 m 4.40807,-0.14413 c -0.86899,-0.0251 -1.21692,-0.40747 -1.21692,-0.40747 0.67842,-0.60653 1.79955,-0.70564 1.79955,-0.70564 -0.14142,0.55397 -0.58263,1.11311 -0.58263,1.11311 m 3.53569,-2.76976 c -1.09791,0.40286 -2.23044,0.51753 -3.31715,0.3865 -0.7106,-2.73806 0.27373,-5.58834 2.38469,-7.32346 0.0469,0.89377 0.22892,1.81822 0.56464,2.73296 0.40754,1.11081 0.99383,2.08849 1.69568,2.89346 0.0142,-1.06777 -0.17054,-2.19256 -0.57774,-3.30364 -0.3497,-0.95351 -0.83226,-1.8077 -1.40512,-2.54016 0.53871,-0.39953 1.14279,-0.73022 1.80451,-0.97286 1.0975,-0.40272 2.22984,-0.51746 3.31607,-0.38684 0.91556,3.52375 -0.9768,7.23412 -4.46558,8.51404"
         inkscape:connector-curvature="0"
         style="fill:#1d3c6f;stroke:none" />
    </g>
    <rect
       style="fill:none;fill-opacity:1;stroke:none"
       id="rect4119"
       width="47.411743"
       height="47.411743"
       x="107.13242"
       y="763.12598"
       ry="0"
       inkscape:export-filename="/home/valentin/github/icaro-bloques/imagenes/logo.png"
       inkscape:export-xdpi="91.116669"
       inkscape:export-ydpi="91.116669" />
  </g>
</svg>
